<svg id="visual" viewBox="0 0 1525 1000" width="1525" height="1000" xmlns="http://www.w3.org/2000/svg" xmlns:xlink="http://www.w3.org/1999/xlink" version="1.1"><path d="M0 251L50.8 264.3C101.7 277.7 203.3 304.3 305 324.3C406.7 344.3 508.3 357.7 610 362.7C711.7 367.7 813.3 364.3 915 329.3C1016.7 294.3 1118.3 227.7 1220 204.3C1321.7 181 1423.3 201 1474.2 211L1525 221L1525 0L1474.2 0C1423.3 0 1321.7 0 1220 0C1118.3 0 1016.7 0 915 0C813.3 0 711.7 0 610 0C508.3 0 406.7 0 305 0C203.3 0 101.7 0 50.8 0L0 0Z" fill="#e9e2f2"></path><path d="M0 381L50.8 394.3C101.7 407.7 203.3 434.3 305 437.7C406.7 441 508.3 421 610 412.7C711.7 404.3 813.3 407.7 915 376C1016.7 344.3 1118.3 277.7 1220 262.7C1321.7 247.7 1423.3 284.3 1474.2 302.7L1525 321L1525 219L1474.2 209C1423.3 199 1321.7 179 1220 202.3C1118.3 225.7 1016.7 292.3 915 327.3C813.3 362.3 711.7 365.7 610 360.7C508.3 355.7 406.7 342.3 305 322.3C203.3 302.3 101.7 275.7 50.8 262.3L0 249Z" fill="#e4deed"></path><path d="M0 521L50.8 517.7C101.7 514.3 203.3 507.7 305 501C406.7 494.3 508.3 487.7 610 496C711.7 504.3 813.3 527.7 915 494.3C1016.7 461 1118.3 371 1220 346C1321.7 321 1423.3 361 1474.2 381L1525 401L1525 319L1474.2 300.7C1423.3 282.3 1321.7 245.7 1220 260.7C1118.3 275.7 1016.7 342.3 915 374C813.3 405.7 711.7 402.3 610 410.7C508.3 419 406.7 439 305 435.7C203.3 432.3 101.7 405.7 50.8 392.3L0 379Z" fill="#dfdae7"></path><path d="M0 551L50.8 552.7C101.7 554.3 203.3 557.7 305 556C406.7 554.3 508.3 547.7 610 561C711.7 574.3 813.3 607.7 915 571C1016.7 534.3 1118.3 427.7 1220 404.3C1321.7 381 1423.3 441 1474.2 471L1525 501L1525 399L1474.2 379C1423.3 359 1321.7 319 1220 344C1118.3 369 1016.7 459 915 492.3C813.3 525.7 711.7 502.3 610 494C508.3 485.7 406.7 492.3 305 499C203.3 505.7 101.7 512.3 50.8 515.7L0 519Z" fill="#dad6e2"></path><path d="M0 611L50.8 639.3C101.7 667.7 203.3 724.3 305 734.3C406.7 744.3 508.3 707.7 610 699.3C711.7 691 813.3 711 915 664.3C1016.7 617.7 1118.3 504.3 1220 499.3C1321.7 494.3 1423.3 597.7 1474.2 649.3L1525 701L1525 499L1474.2 469C1423.3 439 1321.7 379 1220 402.3C1118.3 425.7 1016.7 532.3 915 569C813.3 605.7 711.7 572.3 610 559C508.3 545.7 406.7 552.3 305 554C203.3 555.7 101.7 552.3 50.8 550.7L0 549Z" fill="#d6d2dc"></path><path d="M0 911L50.8 912.7C101.7 914.3 203.3 917.7 305 902.7C406.7 887.7 508.3 854.3 610 841C711.7 827.7 813.3 834.3 915 827.7C1016.7 821 1118.3 801 1220 797.7C1321.7 794.3 1423.3 807.7 1474.2 814.3L1525 821L1525 699L1474.2 647.3C1423.3 595.7 1321.7 492.3 1220 497.3C1118.3 502.3 1016.7 615.7 915 662.3C813.3 709 711.7 689 610 697.3C508.3 705.7 406.7 742.3 305 732.3C203.3 722.3 101.7 665.7 50.8 637.3L0 609Z" fill="#d1ced7"></path><path d="M0 941L50.8 942.7C101.7 944.3 203.3 947.7 305 939.3C406.7 931 508.3 911 610 904.3C711.7 897.7 813.3 904.3 915 897.7C1016.7 891 1118.3 871 1220 871C1321.7 871 1423.3 891 1474.2 901L1525 911L1525 819L1474.2 812.3C1423.3 805.7 1321.7 792.3 1220 795.7C1118.3 799 1016.7 819 915 825.7C813.3 832.3 711.7 825.7 610 839C508.3 852.3 406.7 885.7 305 900.7C203.3 915.7 101.7 912.3 50.8 910.7L0 909Z" fill="#cdcad1"></path><path d="M0 1001L50.8 1001C101.7 1001 203.3 1001 305 1001C406.7 1001 508.3 1001 610 1001C711.7 1001 813.3 1001 915 1001C1016.7 1001 1118.3 1001 1220 1001C1321.7 1001 1423.3 1001 1474.2 1001L1525 1001L1525 909L1474.2 899C1423.3 889 1321.7 869 1220 869C1118.3 869 1016.7 889 915 895.7C813.3 902.3 711.7 895.7 610 902.3C508.3 909 406.7 929 305 937.3C203.3 945.7 101.7 942.3 50.8 940.7L0 939Z" fill="#c8c6cc"></path></svg>